<svg width="1500" height="1200" viewBox="0 0 1500 1200" fill="none" xmlns="http://www.w3.org/2000/svg">
<path d="M677.034 1127.43L684.772 1091.83H741.265C737.396 1101.89 730.173 1118.92 728.109 1127.43H677.034Z" fill="#FFD0C8"/>
<path d="M745.569 1098.64L671.616 1100.93C652.555 948.197 614.435 638.914 614.435 623.666L772.482 607.391L745.569 1098.64Z" fill="#00699C"/>
<path d="M614.434 623.664C614.434 631.123 623.554 708.929 635.104 804.354L674.664 617.512L614.434 623.664Z" fill="#00547D"/>
<path d="M676.372 1147.55C668.943 1132.08 676.372 1115.31 681.015 1108.86C688.754 1120.47 706.553 1122.79 728.995 1124.34C728.376 1109.48 734.412 1103.18 737.508 1101.89C750.647 1131.21 779.79 1147.55 810.251 1151.42C766.141 1160.71 684.885 1149.1 676.372 1147.55Z" fill="#83C1CE"/>
<path d="M729.044 1124.45C728.425 1109.59 734.461 1103.29 737.557 1102C738.061 1103.13 738.781 1104.44 739.726 1105.86C737.561 1108.83 734.098 1116.97 737.557 1125.78C734.245 1125.78 730.502 1124.89 729.044 1124.45Z" fill="#A1DBE8"/>
<path d="M810.251 1151.42C766.141 1160.71 684.884 1149.1 676.372 1147.55C675.082 1151.94 674.205 1160.71 681.015 1160.71C689.528 1160.71 816.442 1171.54 810.251 1151.42Z" fill="#004769"/>
<path d="M511.425 1124.34V1095.7L574.109 1092.61C564.048 1104.22 558.115 1122.53 559.405 1127.43L511.425 1124.34Z" fill="#FFD0C8"/>
<path d="M509.985 1101.7L503.097 547.5C546.3 547.5 622.211 623.668 662.466 623.668C638.069 671.852 599.44 960.906 583.176 1099.41L509.985 1101.7Z" fill="#00699C"/>
<path d="M522.183 689.996C522.183 808.677 523.403 1049.7 528.282 1064.34C532.094 1026.22 527.52 707.531 522.183 689.996Z" fill="#00547D"/>
<path d="M506.838 1147.55C499.409 1132.08 506.838 1115.31 511.481 1108.86C519.22 1120.47 537.019 1122.79 559.461 1124.34C558.842 1109.48 564.879 1103.18 567.974 1101.89C581.113 1131.21 614.049 1151.42 640.718 1151.42C596.607 1160.71 515.351 1149.1 506.838 1147.55Z" fill="#83C1CE"/>
<path d="M559.461 1124.34C558.842 1109.48 564.878 1103.18 567.974 1101.89C568.478 1103.02 569.198 1104.33 570.143 1105.75C567.978 1108.72 564.515 1116.86 567.974 1125.67C564.662 1125.67 560.919 1124.78 559.461 1124.34Z" fill="#A1DBE8"/>
<path d="M640.718 1151.42C596.607 1160.71 515.351 1149.1 506.838 1147.55C505.548 1151.94 504.671 1160.71 511.481 1160.71C519.994 1160.71 646.908 1171.54 640.718 1151.42Z" fill="#004769"/>
<path d="M965.003 469.653L938.166 470.771L934.812 424.924C934.812 424.924 1004.14 424.552 1006.38 428.279C1008.61 432.006 1014.2 442.368 1018.68 453.998C1023.15 465.627 1019.05 477.48 1016.44 481.953C1007.96 496.49 974.694 479.344 965.003 469.653Z" fill="#F8A090"/>
<path d="M973.949 424.927H938.166C940.03 426.045 947.112 431.189 960.53 442.818C977.303 457.354 998.549 445.054 1004.14 439.463C1005.03 454.671 1015.7 456.982 1020.91 456.236C1019.8 452.136 1016.89 440.805 1014.2 428.281C1008.84 407.706 985.131 417.472 973.949 424.927Z" fill="#FFD0C8"/>
<path d="M762.075 302.581C746.171 274.166 724.929 265.435 699.391 248.41C721.383 337.121 782.511 482.627 786.09 494.256C788.787 503.023 803.683 502.436 818.518 500.589L940.402 479.72C945.993 458.474 944.875 430.519 942.639 418.218C915.802 410.167 845.727 407.409 814.045 407.036C795.351 379.968 777.704 330.508 762.075 302.581Z" fill="#83C1CE"/>
<path d="M786.089 494.257C788.515 502.139 800.805 502.459 814.045 501.101L738.979 307.516C760.186 392.689 783.549 485.999 786.089 494.257Z" fill="#599FC5"/>
<path d="M746.502 337.707C765.386 413.431 783.847 486.969 786.089 494.256C787.568 499.063 792.715 501.058 799.508 501.574L746.502 337.707Z" fill="#073861"/>
<path d="M973.018 547.733L965.5 306.46C965.336 301.193 969.485 296.797 974.752 296.655L1146.92 292.033C1152.07 291.894 1156.4 295.887 1156.67 301.035L1157.19 310.876L1163.7 310.763C1168.88 310.673 1173.18 314.747 1173.37 319.926L1176.04 392.924C1176.24 398.284 1171.96 402.746 1166.6 402.783L1160.06 402.828L1164.46 542.453C1164.62 547.72 1160.47 552.118 1155.21 552.262L982.784 556.945C977.547 557.087 973.181 552.969 973.018 547.733Z" fill="#6B9FCB"/>
<path d="M1143.65 535.877L986.309 535.878V316.671C1039.04 316.489 1143.65 316.671 1143.65 316.671V535.877Z" fill="white"/>
<path d="M1005.38 464.208L1004.34 465.54C1004.01 465.963 1004.09 466.576 1004.53 466.893L1008.66 469.926C1009.04 470.21 1009.58 470.161 1009.91 469.811L1016.98 462.299C1017.34 461.917 1017.32 461.315 1016.94 460.955L1015.02 459.147C1014.59 458.745 1013.9 458.822 1013.58 459.309L1009.59 465.225C1009.26 465.711 1008.58 465.788 1008.15 465.386L1006.78 464.102C1006.38 463.718 1005.73 463.768 1005.38 464.208Z" fill="#6B9FCB"/>
<path fill-rule="evenodd" clip-rule="evenodd" d="M1018.33 455.131L1002.23 455.447C1001.7 455.457 1001.28 455.898 1001.29 456.427L1001.77 472.177C1001.79 472.69 1002.21 473.098 1002.72 473.099L1018.49 473.143C1019.02 473.145 1019.45 472.714 1019.44 472.184L1019.3 456.073C1019.3 455.544 1018.86 455.12 1018.33 455.131ZM1002.19 453.545C1000.6 453.576 999.344 454.898 999.392 456.485L999.873 472.235C999.92 473.773 1001.18 474.997 1002.72 475.002L1018.48 475.046C1020.07 475.05 1021.36 473.756 1021.35 472.167L1021.2 456.057C1021.19 454.469 1019.88 453.197 1018.29 453.229L1002.19 453.545Z" fill="#96B6D0"/>
<path d="M1099.17 460.013L1035.67 460.641C1034.11 460.656 1032.83 459.427 1032.79 457.875C1032.74 456.277 1034.01 454.951 1035.61 454.935L1099.11 454.307C1100.67 454.292 1101.95 455.521 1101.99 457.073C1102.04 458.671 1100.77 459.997 1099.17 460.013Z" fill="#6B9FCB"/>
<path d="M1127.57 470.1L1035.21 470.062C1034.06 470.061 1033.13 469.138 1033.11 467.991C1033.1 466.826 1034.04 465.876 1035.21 465.877L1127.57 465.915C1128.72 465.915 1129.65 466.838 1129.67 467.985C1129.68 469.15 1128.74 470.1 1127.57 470.1Z" fill="#96B6D0"/>
<path d="M1127.91 481.053L1035.54 481.015C1034.39 481.014 1033.46 480.091 1033.45 478.944C1033.44 477.78 1034.38 476.829 1035.54 476.83L1127.91 476.868C1129.06 476.868 1129.99 477.792 1130 478.938C1130.01 480.103 1129.07 481.053 1127.91 481.053Z" fill="#96B6D0"/>
<path d="M1100.67 401.439L1037.17 402.067C1035.61 402.082 1034.33 400.853 1034.29 399.301C1034.24 397.703 1035.51 396.377 1037.11 396.361L1100.61 395.733C1102.17 395.717 1103.45 396.947 1103.49 398.499C1103.54 400.097 1102.27 401.423 1100.67 401.439Z" fill="#6B9FCB"/>
<path d="M1122.38 411.727L1036.7 411.494C1035.56 411.491 1034.62 410.566 1034.61 409.42C1034.6 408.255 1035.54 407.306 1036.7 407.309L1122.38 407.542C1123.53 407.545 1124.46 408.47 1124.47 409.616C1124.49 410.781 1123.55 411.73 1122.38 411.727Z" fill="#96B6D0"/>
<path d="M1122.71 422.68L1037.04 422.447C1035.89 422.444 1034.96 421.52 1034.94 420.374C1034.93 419.208 1035.87 418.259 1037.04 418.262L1122.71 418.495C1123.86 418.498 1124.79 419.423 1124.81 420.569C1124.82 421.734 1123.88 422.683 1122.71 422.68Z" fill="#96B6D0"/>
<path d="M1005.53 406.63L1004.49 407.962C1004.16 408.385 1004.24 408.998 1004.67 409.315L1008.8 412.348C1009.19 412.632 1009.73 412.583 1010.06 412.233L1017.12 404.721C1017.48 404.338 1017.47 403.736 1017.08 403.377L1015.16 401.569C1014.73 401.167 1014.05 401.244 1013.72 401.731L1009.74 407.647C1009.41 408.133 1008.72 408.21 1008.3 407.808L1006.93 406.524C1006.52 406.14 1005.88 406.19 1005.53 406.63Z" fill="#6B9FCB"/>
<path fill-rule="evenodd" clip-rule="evenodd" d="M1018.48 397.553L1002.37 397.869C1001.84 397.879 1001.42 398.32 1001.44 398.849L1001.92 414.599C1001.94 415.112 1002.36 415.52 1002.87 415.521L1018.64 415.565C1019.17 415.567 1019.59 415.135 1019.59 414.606L1019.45 398.495C1019.44 397.966 1019.01 397.542 1018.48 397.553ZM1002.33 395.967C1000.75 395.998 999.49 397.32 999.538 398.907L1000.02 414.657C1000.07 416.195 1001.32 417.419 1002.86 417.423L1018.63 417.468C1020.22 417.472 1021.51 416.178 1021.49 414.589L1021.35 398.479C1021.34 396.89 1020.03 395.619 1018.44 395.651L1002.33 395.967Z" fill="#96B6D0"/>
<path d="M1099.25 354.857L1035.74 355.485C1034.19 355.5 1032.91 354.271 1032.86 352.719C1032.81 351.121 1034.09 349.795 1035.69 349.779L1099.19 349.151C1100.74 349.135 1102.02 350.365 1102.07 351.917C1102.12 353.515 1100.85 354.841 1099.25 354.857Z" fill="#6B9FCB"/>
<path d="M1127.65 364.943L1035.28 364.905C1034.14 364.905 1033.2 363.981 1033.19 362.835C1033.18 361.67 1034.12 360.72 1035.29 360.72L1127.65 360.758C1128.8 360.759 1129.73 361.682 1129.74 362.829C1129.76 363.993 1128.82 364.944 1127.65 364.943Z" fill="#96B6D0"/>
<path d="M1127.99 375.896L1035.62 375.858C1034.47 375.858 1033.54 374.934 1033.53 373.788C1033.51 372.623 1034.45 371.673 1035.62 371.673L1127.99 371.711C1129.13 371.712 1130.07 372.635 1130.08 373.782C1130.09 374.947 1129.15 375.897 1127.99 375.896Z" fill="#96B6D0"/>
<path d="M1004.11 360.044L1003.07 361.376C1002.73 361.799 1002.82 362.412 1003.25 362.729L1007.38 365.762C1007.77 366.046 1008.31 365.997 1008.64 365.647L1015.7 358.135C1016.06 357.753 1016.04 357.151 1015.66 356.791L1013.74 354.983C1013.31 354.581 1012.63 354.658 1012.3 355.145L1008.32 361.061C1007.99 361.547 1007.3 361.624 1006.87 361.222L1005.51 359.938C1005.1 359.554 1004.45 359.604 1004.11 360.044Z" fill="#6B9FCB"/>
<path fill-rule="evenodd" clip-rule="evenodd" d="M1017.06 350.967L1000.95 351.283C1000.42 351.293 1000 351.734 1000.02 352.263L1000.5 368.013C1000.51 368.526 1000.93 368.934 1001.45 368.935L1017.21 368.979C1017.74 368.981 1018.17 368.549 1018.17 368.02L1018.03 351.909C1018.02 351.38 1017.59 350.956 1017.06 350.967ZM1000.91 349.381C999.325 349.412 998.068 350.734 998.116 352.321L998.597 368.071C998.644 369.609 999.902 370.833 1001.44 370.837L1017.21 370.882C1018.8 370.886 1020.08 369.592 1020.07 368.003L1019.93 351.893C1019.91 350.305 1018.61 349.033 1017.02 349.065L1000.91 349.381Z" fill="#96B6D0"/>
<path fill-rule="evenodd" clip-rule="evenodd" d="M1108.29 493.34C1101.73 493.541 1096.57 499.024 1096.77 505.588L1096.29 505.602C1096.08 498.776 1101.45 493.073 1108.28 492.865C1111.82 492.757 1115.06 494.15 1117.38 496.468L1117.05 496.805C1114.81 494.575 1111.7 493.236 1108.29 493.34ZM1109.02 517.109C1115.58 516.909 1120.74 511.426 1120.54 504.862L1121.01 504.848C1121.22 511.674 1115.86 517.376 1109.03 517.585C1105.73 517.685 1102.7 516.486 1100.42 514.451L1100.74 514.097C1102.93 516.054 1105.85 517.206 1109.02 517.109Z" fill="#96B6D0"/>
<path d="M1117.92 504.942C1118.08 510.062 1114.06 514.339 1108.94 514.495C1103.82 514.651 1099.54 510.628 1099.38 505.508C1099.23 500.389 1103.25 496.112 1108.37 495.955C1113.49 495.799 1117.77 499.823 1117.92 504.942Z" fill="#6B9FCB"/>
<path d="M1113.65 505.308C1113.74 508.196 1111.47 510.609 1108.58 510.697C1105.69 510.785 1103.28 508.516 1103.19 505.628C1103.11 502.74 1105.37 500.327 1108.26 500.239C1111.15 500.151 1113.56 502.42 1113.65 505.308Z" fill="white"/>
<path d="M641.351 564.926C636.45 589.69 634.541 634.419 666.115 615.227C666.115 594.178 649.605 572.922 641.351 564.926Z" fill="white"/>
<path d="M504.802 627.607C479.265 496.049 495.706 268.346 600.316 234.234C610.118 260.546 635.16 315.119 656.828 343.597C683.913 379.195 652.959 605.939 651.411 627.607C649.863 649.275 566.484 655.502 504.802 627.607Z" fill="#83C1CE"/>
<path d="M598.001 233.5C607.803 259.812 635.16 315.12 656.828 343.598C674.908 367.36 667.127 476.289 659.493 552.543C609.213 565.957 512.748 588.54 500.822 420.146C509.919 321.79 549.651 253.28 598.001 233.5Z" fill="#599FC5"/>
<path d="M676.175 638.442C658.376 638.442 654.506 626.06 654.506 619.095C654.506 565.853 663.277 430.271 667.662 369.136C676.175 348.241 694.129 295.618 697.843 252.281C803.863 314.965 775.23 588.141 774.456 610.583C773.682 633.025 703.26 638.442 676.175 638.442Z" fill="#83C1CE"/>
<path d="M758.205 527.003C750.776 556.101 687.339 556.152 656.549 552.541C658.544 509.39 661.673 457.973 664.422 416.34C667.402 441.723 728.186 464.578 758.205 472.832V527.003Z" fill="#599FC5"/>
<path fill-rule="evenodd" clip-rule="evenodd" d="M524.677 564.137C525.221 562.868 526.69 562.28 527.96 562.824C535.446 566.032 544.772 568.738 567.617 566.05C568.988 565.889 570.231 566.87 570.392 568.241C570.553 569.612 569.573 570.854 568.201 571.016C544.654 573.786 534.423 571.034 525.99 567.42C524.721 566.876 524.133 565.406 524.677 564.137Z" fill="#599FC5"/>
<path fill-rule="evenodd" clip-rule="evenodd" d="M703.197 575.508C703.741 574.239 705.211 573.651 706.48 574.195C713.966 577.403 723.292 580.109 746.137 577.421C747.508 577.26 748.751 578.241 748.912 579.612C749.073 580.983 748.093 582.226 746.721 582.387C723.174 585.157 712.943 582.405 704.51 578.791C703.241 578.247 702.653 576.777 703.197 575.508Z" fill="#599FC5"/>
<path d="M590.22 239.527C557.285 266.364 633.932 338.64 676.372 371.424C708.088 312.261 700.769 259.858 693.145 241.052L669.511 269.261L590.22 239.527Z" fill="#A7DDE9"/>
<path d="M595.807 236.596C605.094 206.879 601.224 184.489 598.129 177.008C619.539 184.747 664.682 201.772 677.063 207.963C677.063 248.978 683.512 254.395 686.35 253.621L674.742 275.289C652.3 269.614 605.094 253.93 595.807 236.596Z" fill="#FFD0C8"/>
<path d="M598.128 177.008C619.539 184.747 664.681 201.772 677.063 207.963C677.063 220.6 677.675 229.857 678.605 236.596L598.128 177.008Z" fill="#F8A090"/>
<path d="M665.699 293.804L654.263 273.219C667.224 249.443 687.047 267.995 693.146 271.552L681.166 293.976L665.699 293.804Z" fill="#1E8FAF"/>
<path d="M693.146 271.552L680.935 293.799C677.631 292.562 669.969 284.502 665.699 262.143C676.816 258.267 688.672 268.943 693.146 271.552Z" fill="#16738D"/>
<path d="M665.699 293.801L654.263 273.216C657.718 266.879 661.66 263.549 665.699 262.141L671.036 293.801H665.699Z" fill="#16738D"/>
<path d="M677.296 292.43H666.462L662.593 382.199L674.04 418.698L685.809 385.294L687.357 340.41L677.296 292.43Z" fill="#16738D"/>
<path d="M680.392 292.43H669.558L665.688 382.199L677.135 418.698L688.905 385.294L690.452 340.41L680.392 292.43Z" fill="#1E8FAF"/>
<path d="M680.392 294.751H669.558L668.784 292.43H682.713L680.392 294.751Z" fill="#16738D"/>
<path d="M586.753 242.898C553.817 269.735 627.741 341.735 670.181 374.518C671.565 394.063 673.263 420.008 675.061 445.731L543.462 281.424L562.224 262.663C569.855 257.444 580.967 246.274 586.753 242.898Z" fill="#83C1CE"/>
<path d="M590.082 239.922C557.146 266.759 633.932 338.639 676.372 371.423C677.756 390.967 679.454 415.079 681.251 440.802L544.476 280.696C559.842 256.008 581.282 243.227 590.082 239.922Z" fill="#599FC5"/>
<path fill-rule="evenodd" clip-rule="evenodd" d="M574.767 251.859L575.523 252.514L551.039 280.824L670.714 422.889L669.949 423.534L549.724 280.815L574.767 251.859Z" fill="#E3EEFE"/>
<path d="M660.198 627.61L678.156 440.801L663.366 422.438L648.315 633.027L660.198 627.61Z" fill="#599FC5"/>
<path d="M667.663 637.666L680.392 439.459L669.528 427.074C669.528 427.074 652.185 581.174 655.281 624.511C656.11 636.119 667.663 637.666 667.663 637.666Z" fill="#599FC5"/>
<path d="M696.379 244.074C712.847 297.138 691.296 352.59 678.844 373.683C680.016 392.383 679.618 423.985 680.391 450.297L739.979 275.402L696.379 244.074Z" fill="#83C1CE"/>
<path d="M693.908 241.812C710.376 294.876 688.825 350.328 676.373 371.422C677.545 390.121 678.806 416.701 680.392 441.781L734.299 276.173L693.908 241.812Z" fill="#599FC5"/>
<path fill-rule="evenodd" clip-rule="evenodd" d="M729.343 277.884L693.993 247.145L694.649 246.391L730.495 277.561L678.565 440.329L665.84 634.606L664.842 634.54L677.575 440.142L729.343 277.884Z" fill="#E3EEFE"/>
<path d="M668.783 305.583C627.918 302.533 596.32 267.992 584.884 250.965L666.461 261.639L693.908 246.391C693.145 263.164 692.117 301.713 689.678 301.713C676.869 299.883 666.715 270.533 666.461 261.639C665.953 268.755 671.879 291.653 668.783 305.583Z" fill="#E9EFF4"/>
<path d="M583.359 251.726C579.547 247.152 594.795 227.329 597.082 225.805C610.5 240.443 648.926 255.284 666.461 260.875C665.19 271.549 662.649 294.421 662.649 300.52C638.252 298.996 587.171 256.301 583.359 251.726Z" fill="#A7DDE9"/>
<path d="M599.646 221.23C598.051 222.515 597.082 225.805 597.082 225.805C599.421 228.357 602.52 230.915 606.136 233.429C606.136 233.429 598.872 225.805 599.646 221.23Z" fill="#A7BCDB"/>
<path d="M689.333 289.845C686.283 299.604 672.814 274.597 666.461 260.874C675 257.214 678.151 236.985 678.659 227.328C683.996 231.903 695.28 241.966 697.72 245.626C700.769 250.2 693.145 277.647 689.333 289.845Z" fill="#A7DDE9"/>
<path d="M677.676 227.328H678.66C678.427 231.753 677.639 238.396 676.033 244.649C675.822 245.608 675.591 246.458 675.337 247.151C675.584 246.328 675.816 245.492 676.033 244.649C677.16 239.508 677.676 231.241 677.676 227.328Z" fill="#A7BCDB"/>
<path d="M821.136 532.055L818.135 529.906L823.548 522.336L825.611 523.558L851.566 488.208L852.641 489.216C853.11 489.68 849.79 494.03 849.326 494.499C848.888 494.611 848.676 494.238 848.639 494.092L821.136 532.055Z" fill="#93A9BE"/>
<path d="M806.748 538.07L813.306 529.28L815.069 530.695L808.558 539.421C808.176 539.934 807.444 540.027 806.946 539.626C806.471 539.246 806.384 538.558 806.748 538.07Z" fill="#93A9BE"/>
<path d="M887.348 435.64C883.501 434.105 881.707 431.989 881.29 431.124L810.204 528.554L816.18 533.209C839.224 501.832 885.718 438.391 887.348 435.64Z" fill="#C1CDD9"/>
<path d="M887.348 435.643C883.501 434.107 881.707 431.992 881.29 431.126L896.207 416.922L887.348 435.643Z" fill="#A6AEB6"/>
<path d="M896.206 416.921L891.756 421.159C891.861 421.655 892.406 422.585 893.742 422.336L896.206 416.921Z" fill="black"/>
<path d="M858.377 472.262C874.785 511.989 813.293 524.988 780.497 526.522C779.716 526.56 778.749 500.857 776.931 483.084C793.115 489.449 833.859 447.004 847.251 442.872C860.644 438.739 854.749 453.259 843.603 460.901C832.456 468.544 891.595 439.922 893.841 443.432C901.049 452.298 871.804 464.184 858.377 472.262Z" fill="#FFD0C8"/>
<path d="M780.497 526.523C779.716 526.562 778.749 500.859 776.931 483.085C781.597 484.921 788.305 482.699 795.809 478.507C786.523 492.591 791.94 515.467 795.809 525.144C790.333 525.862 785.129 526.307 780.497 526.523Z" fill="#F8A090"/>
<path d="M645.958 568.751C573.668 573.885 548.266 510.98 520.881 466.573C475.239 392.564 541.386 326.363 565.765 367.403C565.765 367.403 613.198 485.191 648.529 483.173C683.859 481.156 757.713 476.511 770.483 474.073C786.446 471.026 786.247 475.466 785.147 480.728C783.088 490.576 783.861 523.517 791.504 534.663C799.147 545.81 718.247 563.617 645.958 568.751Z" fill="#83C1CE"/>
<path opacity="0.2" d="M645.957 568.749C573.668 573.882 548.266 510.977 520.88 466.571C508.982 447.276 504.681 428.512 505.256 412.041C527.867 464.975 587.661 570.423 645.957 568.749Z" fill="#599FC5"/>
<path d="M584.356 147.538C577.796 163.083 596.372 179.952 606.683 185.852C716.506 265.749 706.576 168.98 684.486 113.047C652.667 122.142 588.093 141.774 584.356 147.538Z" fill="#FFD0C8"/>
<path fill-rule="evenodd" clip-rule="evenodd" d="M683.323 118.49C695.749 98.4153 697.6 72.3914 695.333 53.502L696.326 53.3828C698.608 72.3956 696.763 98.6768 684.173 119.016C677.873 129.195 668.88 137.885 656.377 143.417C643.876 148.948 627.899 151.308 607.647 148.884L607.766 147.891C627.881 150.299 643.67 147.946 655.972 142.503C668.271 137.061 677.116 128.517 683.323 118.49Z" fill="#331E17"/>
<path d="M603.352 159.643C596.338 148.54 588.057 149.225 584.518 149.657C571.834 151.206 557.141 121.275 584.306 111.865C557.185 40.7889 654.389 64.3201 669.48 64.7299C684.571 65.1397 691.869 48.9242 693.833 50.2348C714.125 63.996 696.162 99.6943 684.541 113.157C639.889 160.6 609.675 146.174 606.632 146.039C605.624 150.748 605.334 152.187 603.352 159.643Z" fill="#070403"/>
<path d="M684.541 113.16C639.888 160.603 609.675 146.176 606.631 146.042C680.778 121.021 687.127 79.2746 681.033 61.5289C688.472 56.984 692.458 49.3201 693.832 50.2372C714.124 63.9984 696.162 99.6967 684.541 113.16Z" fill="#331E17"/>
<path d="M565.067 111.434C574.732 108.592 587.24 112.381 588.377 113.708H588.373C582.686 113.708 570.183 113.708 565.067 111.434Z" fill="#331E17"/>
<path d="M571.841 97.3589C580.53 102.458 586.331 114.169 586.143 115.906L586.14 115.903C582.246 111.758 573.686 102.644 571.841 97.3589Z" fill="#331E17"/>
</svg>
